<?xml version="1.0" encoding="UTF-8" standalone="no"?>
<svg
   width="128"
   height="148"
   version="1.1"
   viewBox="0 0 33.866999 39.158718"
   id="svg1"
   sodipodi:docname="yellowred1.svg"
   inkscape:version="1.3.2 (091e20e, 2023-11-25, custom)"
   xmlns:inkscape="http://www.inkscape.org/namespaces/inkscape"
   xmlns:sodipodi="http://sodipodi.sourceforge.net/DTD/sodipodi-0.dtd"
   xmlns="http://www.w3.org/2000/svg"
   xmlns:svg="http://www.w3.org/2000/svg">
  <defs
     id="defs1" />
  <sodipodi:namedview
     id="namedview1"
     pagecolor="#ffffff"
     bordercolor="#000000"
     borderopacity="0.25"
     inkscape:showpageshadow="2"
     inkscape:pageopacity="0.0"
     inkscape:pagecheckerboard="0"
     inkscape:deskcolor="#d1d1d1"
     inkscape:zoom="4.7695313"
     inkscape:cx="30.610974"
     inkscape:cy="74.954954"
     inkscape:window-width="2560"
     inkscape:window-height="1417"
     inkscape:window-x="-8"
     inkscape:window-y="-8"
     inkscape:window-maximized="1"
     inkscape:current-layer="g1"
     showgrid="true">
    <inkscape:grid
       id="grid1"
       units="px"
       originx="-4.3143505e-08"
       originy="1.7841408e-07"
       spacingx="0.26458594"
       spacingy="0.26458594"
       empcolor="#0099e5"
       empopacity="0.30196078"
       color="#0099e5"
       opacity="0.14901961"
       empspacing="8"
       dotted="false"
       gridanglex="30"
       gridanglez="30"
       visible="true" />
  </sodipodi:namedview>
  <g
     id="g1"
     transform="matrix(0.89649609,0,0,0.89649609,2.8464033,4.2696048)">
    <rect
       style="fill:#ffff31;fill-opacity:1;stroke-width:1.70569;stroke-linejoin:round"
       id="rect1"
       width="23.61067"
       height="35.416008"
       x="-3.4504123"
       y="-1.7655287"
       ry="3.3202517"
       transform="rotate(-10.163712)" />
    <rect
       style="fill:#ff3153;fill-opacity:1;stroke-width:1.71509;stroke-linejoin:round"
       id="rect1-1"
       width="23.871502"
       height="35.416008"
       x="11.055496"
       y="-6.2192836"
       ry="3.320251"
       transform="rotate(15)" />
    <path
       style="fill:#ebb8a2;fill-opacity:1;stroke:#000000;stroke-width:0.590267;stroke-linejoin:round;stroke-dasharray:none;stroke-opacity:1"
       d="m 11.51146,27.803517 v -4.722133 c 0,-2.065935 2.361067,-1.770801 2.361067,0 l -10e-7,5.681315 10e-7,-8.042383 c 0,-1.770801 2.361066,-1.770801 2.361066,0 v 8.337516 -7.156982 c 0,-1.770801 2.361067,-1.475667 2.361067,0 v 8.042383 -5.607535 c 0.03094,-1.608851 2.361068,-1.475667 2.361068,0 v 10.255887 l -1.475668,2.43485 v 4.722134 l -7.0832,-1e-6 V 37.026434 L 8.8552585,34.591585 V 32.599433 H 11.51146 Z"
       id="path2"
       sodipodi:nodetypes="ccccccccccccccccccccc" />
  </g>
</svg>
