<?xml version="1.0" encoding="UTF-8" standalone="no"?>
<svg
   width="88.000008"
   height="128"
   version="1.1"
   viewBox="0 0 23.283565 33.867"
   id="svg1"
   sodipodi:docname="yellow.svg"
   inkscape:version="1.3.2 (091e20e, 2023-11-25, custom)"
   xmlns:inkscape="http://www.inkscape.org/namespaces/inkscape"
   xmlns:sodipodi="http://sodipodi.sourceforge.net/DTD/sodipodi-0.dtd"
   xmlns="http://www.w3.org/2000/svg"
   xmlns:svg="http://www.w3.org/2000/svg">
  <defs
     id="defs1" />
  <sodipodi:namedview
     id="namedview1"
     pagecolor="#ffffff"
     bordercolor="#000000"
     borderopacity="0.25"
     inkscape:showpageshadow="2"
     inkscape:pageopacity="0.0"
     inkscape:pagecheckerboard="0"
     inkscape:deskcolor="#d1d1d1"
     inkscape:zoom="9.5390625"
     inkscape:cx="43.924652"
     inkscape:cy="103.62654"
     inkscape:window-width="2560"
     inkscape:window-height="1417"
     inkscape:window-x="-8"
     inkscape:window-y="-8"
     inkscape:window-maximized="1"
     inkscape:current-layer="svg1"
     showgrid="true">
    <inkscape:grid
       id="grid1"
       units="px"
       originx="-5.2917176"
       originy="0"
       spacingx="0.26458594"
       spacingy="0.26458594"
       empcolor="#0099e5"
       empopacity="0.30196078"
       color="#0099e5"
       opacity="0.14901961"
       empspacing="8"
       dotted="false"
       gridanglex="30"
       gridanglez="30"
       visible="true" />
  </sodipodi:namedview>
  <rect
     style="fill:#ffff31;fill-opacity:1;stroke-width:1.52914;stroke-linejoin:round"
     id="rect1"
     width="21.166874"
     height="31.750313"
     x="1.0583454"
     y="0"
     ry="2.9765928" />
  <path
     style="fill:#ebb8a2;fill-opacity:1;stroke:#000000;stroke-width:0.529172;stroke-linejoin:round;stroke-dasharray:none;stroke-opacity:1"
     d="m 11.641783,27.715379 v -4.233374 c 0,-1.852102 2.116688,-1.587516 2.116688,0 l -10e-7,5.093277 10e-7,-7.209965 c 0,-1.587516 2.116687,-1.587516 2.116687,0 v 7.474551 -6.416207 c 0,-1.587516 2.116687,-1.32293 2.116687,0 v 7.209965 l 0,-5.027133 c 0.02774,-1.442329 2.116688,-1.32293 2.116688,0 l 0,9.194363 -1.32293,2.182833 v 4.233375 l -6.350062,-10e-7 v -4.233375 l -3.175032,-2.182832 2e-7,-1.785957 h 2.3812738 z"
     id="path2"
     sodipodi:nodetypes="ccccccccccccccccccccc" />
</svg>
